<svg width="33" height="33" viewBox="0 0 33 33" fill="none" xmlns="http://www.w3.org/2000/svg">
<path fill-rule="evenodd" clip-rule="evenodd" d="M11.2021 22.77C13.5163 24.8559 16.5798 26.125 19.9375 26.125C27.1466 26.125 33 20.2716 33 13.0625C33 5.85337 27.1466 0 19.9375 0C12.7284 0 6.875 5.85337 6.875 13.0625C6.875 16.4202 8.14412 19.4837 10.23 21.7979L0 32.0279L0.972126 33L11.2021 22.77ZM19.9375 1.375C13.4874 1.375 8.25 6.61238 8.25 13.0625C8.25 19.5126 13.4874 24.75 19.9375 24.75C26.3876 24.75 31.625 19.5126 31.625 13.0625C31.625 6.61238 26.3876 1.375 19.9375 1.375Z" />
</svg>
